# xmcd CD database file
#
# Track frame offsets:
#	150
#	17217
#	35345
#	50421
#	65474
#	81682
#	96165
#	115170
#	138313
#	153183
#	171682
#	186835
#	206666
#	226212
#	245970
#	261991
#
# Disc length: 3720 seconds
#
# Revision: 0
# Processed by: cddbd v1.5.2PL0 Copyright (c) Steve Scherf et al.
# Submitted via: CDex 1.70beta2
#
DISCID=eb0e8610
DTITLE=Diverse - Los Hits Flow Del Merengue
DYEAR=1900
DGENRE=Merengue
TTITLE0=AMARFIS - Merengue Congagá
TTITLE1=TITO SWING - El Café
TTITLE2=TULILE - Esa Jeva
TTITLE3=PELUKE SWING - La Leche
TTITLE4=MALAFE - Dale Mami
TTITLE5=RINAL KLEN - Como La Queria
TTITLE6=CHAMACO PAPI - Pola
TTITLE7=BOBOLAY - No Es Culpa Mia
TTITLE8=KALIMETE - El Dueno Del Asiento
TTITLE9=YEISY - Mevengo
TTITLE10=UNICMAMBO - Yo Me Quiero Deja
TTITLE11=BENNY SADEL - Tu Me Vas A Dejar
TTITLE12=RONNY BRAVO - La Mujer Que Tanto Amé
TTITLE13=LOS REALES NEGRONES - El Comentario
TTITLE14=KEWDY DE LOS SANTOS Y EL LAPIZ - Rintintin
TTITLE15=EL COMBATE - El Preso
EXTD=
EXTT0=
EXTT1=
EXTT2=
EXTT3=
EXTT4=
EXTT5=
EXTT6=
EXTT7=
EXTT8=
EXTT9=
EXTT10=
EXTT11=
EXTT12=
EXTT13=
EXTT14=
EXTT15=
PLAYORDER=
